# xmcd CD database file
#
# Track frame offsets:
#	150
#	3109
#	26265
#	50714
#	77304
#	100417
#	121249
#	142516
#	156821
#	187852
#	206598
#
# Disc length: 3081 seconds
#
# Revision: 0
# Processed by: cddbd v1.5.2PL0 Copyright (c) Steve Scherf et al.
# Submitted via: Feurio! 1.68 - http://www.feurio.com
#
DISCID=750c070b
DTITLE=Lucinda Williams - KFOG 1998
DYEAR=1900
DGENRE=
TTITLE0=Intro
TTITLE1=Pineola
TTITLE2=Car Wheels On A Gravel Road
TTITLE3=Right In Time
TTITLE4=Drunken Angel
TTITLE5=Greenville
TTITLE6=Can't Let Go
TTITLE7=Band Intro
TTITLE8=Joy
TTITLE9=Disgusted
TTITLE10=Changed The Locks
EXTD=
EXTT0=
EXTT1=
EXTT2=
EXTT3=
EXTT4=
EXTT5=
EXTT6=
EXTT7=
EXTT8=
EXTT9=
EXTT10=
PLAYORDER=
